%TF.GenerationSoftware,KiCad,Pcbnew,5.1.7*%
%TF.CreationDate,2020-10-23T20:44:08-04:00*%
%TF.ProjectId,18650_keep_alive,31383635-305f-46b6-9565-705f616c6976,rev?*%
%TF.SameCoordinates,PX84157a0PY3a699d0*%
%TF.FileFunction,Copper,L1,Top*%
%TF.FilePolarity,Positive*%
%FSLAX46Y46*%
G04 Gerber Fmt 4.6, Leading zero omitted, Abs format (unit mm)*
G04 Created by KiCad (PCBNEW 5.1.7) date 2020-10-23 20:44:08*
%MOMM*%
%LPD*%
G01*
G04 APERTURE LIST*
%TA.AperFunction,SMDPad,CuDef*%
%ADD10R,2.500000X2.500000*%
%TD*%
%TA.AperFunction,SMDPad,CuDef*%
%ADD11R,0.800000X0.900000*%
%TD*%
%TA.AperFunction,SMDPad,CuDef*%
%ADD12R,1.060000X0.650000*%
%TD*%
%TA.AperFunction,Conductor*%
%ADD13C,0.250000*%
%TD*%
%TA.AperFunction,Conductor*%
%ADD14C,0.254000*%
%TD*%
%TA.AperFunction,Conductor*%
%ADD15C,0.100000*%
%TD*%
G04 APERTURE END LIST*
D10*
%TO.P,J1,1*%
%TO.N,VCC*%
X-4750000Y-4500000D03*
%TD*%
%TO.P,J2,1*%
%TO.N,+5V*%
X-9250000Y-4500000D03*
%TD*%
%TO.P,J3,1*%
%TO.N,GND*%
X-18250000Y-4500000D03*
%TD*%
%TO.P,J4,1*%
%TO.N,Net-(J4-Pad1)*%
X-13750000Y-4500000D03*
%TD*%
D11*
%TO.P,Q1,1*%
%TO.N,Net-(Q1-Pad1)*%
X-12800000Y-8000000D03*
%TO.P,Q1,2*%
%TO.N,GND*%
X-14700000Y-8000000D03*
%TO.P,Q1,3*%
%TO.N,Net-(J4-Pad1)*%
X-13750000Y-10000000D03*
%TD*%
%TO.P,R1,2*%
%TO.N,VCC*%
%TA.AperFunction,SMDPad,CuDef*%
G36*
G01*
X-6299998Y-8600000D02*
X-7200002Y-8600000D01*
G75*
G02*
X-7450000Y-8350002I0J249998D01*
G01*
X-7450000Y-7824998D01*
G75*
G02*
X-7200002Y-7575000I249998J0D01*
G01*
X-6299998Y-7575000D01*
G75*
G02*
X-6050000Y-7824998I0J-249998D01*
G01*
X-6050000Y-8350002D01*
G75*
G02*
X-6299998Y-8600000I-249998J0D01*
G01*
G37*
%TD.AperFunction*%
%TO.P,R1,1*%
%TO.N,Net-(R1-Pad1)*%
%TA.AperFunction,SMDPad,CuDef*%
G36*
G01*
X-6299998Y-10425000D02*
X-7200002Y-10425000D01*
G75*
G02*
X-7450000Y-10175002I0J249998D01*
G01*
X-7450000Y-9649998D01*
G75*
G02*
X-7200002Y-9400000I249998J0D01*
G01*
X-6299998Y-9400000D01*
G75*
G02*
X-6050000Y-9649998I0J-249998D01*
G01*
X-6050000Y-10175002D01*
G75*
G02*
X-6299998Y-10425000I-249998J0D01*
G01*
G37*
%TD.AperFunction*%
%TD*%
%TO.P,R2,2*%
%TO.N,+5V*%
%TA.AperFunction,SMDPad,CuDef*%
G36*
G01*
X-9549998Y-8600000D02*
X-10450002Y-8600000D01*
G75*
G02*
X-10700000Y-8350002I0J249998D01*
G01*
X-10700000Y-7824998D01*
G75*
G02*
X-10450002Y-7575000I249998J0D01*
G01*
X-9549998Y-7575000D01*
G75*
G02*
X-9300000Y-7824998I0J-249998D01*
G01*
X-9300000Y-8350002D01*
G75*
G02*
X-9549998Y-8600000I-249998J0D01*
G01*
G37*
%TD.AperFunction*%
%TO.P,R2,1*%
%TO.N,Net-(R2-Pad1)*%
%TA.AperFunction,SMDPad,CuDef*%
G36*
G01*
X-9549998Y-10425000D02*
X-10450002Y-10425000D01*
G75*
G02*
X-10700000Y-10175002I0J249998D01*
G01*
X-10700000Y-9649998D01*
G75*
G02*
X-10450002Y-9400000I249998J0D01*
G01*
X-9549998Y-9400000D01*
G75*
G02*
X-9300000Y-9649998I0J-249998D01*
G01*
X-9300000Y-10175002D01*
G75*
G02*
X-9549998Y-10425000I-249998J0D01*
G01*
G37*
%TD.AperFunction*%
%TD*%
%TO.P,R3,1*%
%TO.N,Net-(R1-Pad1)*%
%TA.AperFunction,SMDPad,CuDef*%
G36*
G01*
X-7200002Y-12075000D02*
X-6299998Y-12075000D01*
G75*
G02*
X-6050000Y-12324998I0J-249998D01*
G01*
X-6050000Y-12850002D01*
G75*
G02*
X-6299998Y-13100000I-249998J0D01*
G01*
X-7200002Y-13100000D01*
G75*
G02*
X-7450000Y-12850002I0J249998D01*
G01*
X-7450000Y-12324998D01*
G75*
G02*
X-7200002Y-12075000I249998J0D01*
G01*
G37*
%TD.AperFunction*%
%TO.P,R3,2*%
%TO.N,GND*%
%TA.AperFunction,SMDPad,CuDef*%
G36*
G01*
X-7200002Y-13900000D02*
X-6299998Y-13900000D01*
G75*
G02*
X-6050000Y-14149998I0J-249998D01*
G01*
X-6050000Y-14675002D01*
G75*
G02*
X-6299998Y-14925000I-249998J0D01*
G01*
X-7200002Y-14925000D01*
G75*
G02*
X-7450000Y-14675002I0J249998D01*
G01*
X-7450000Y-14149998D01*
G75*
G02*
X-7200002Y-13900000I249998J0D01*
G01*
G37*
%TD.AperFunction*%
%TD*%
%TO.P,R4,1*%
%TO.N,Net-(R2-Pad1)*%
%TA.AperFunction,SMDPad,CuDef*%
G36*
G01*
X-16825000Y-12299998D02*
X-16825000Y-13200002D01*
G75*
G02*
X-17074998Y-13450000I-249998J0D01*
G01*
X-17600002Y-13450000D01*
G75*
G02*
X-17850000Y-13200002I0J249998D01*
G01*
X-17850000Y-12299998D01*
G75*
G02*
X-17600002Y-12050000I249998J0D01*
G01*
X-17074998Y-12050000D01*
G75*
G02*
X-16825000Y-12299998I0J-249998D01*
G01*
G37*
%TD.AperFunction*%
%TO.P,R4,2*%
%TO.N,GND*%
%TA.AperFunction,SMDPad,CuDef*%
G36*
G01*
X-18650000Y-12299998D02*
X-18650000Y-13200002D01*
G75*
G02*
X-18899998Y-13450000I-249998J0D01*
G01*
X-19425002Y-13450000D01*
G75*
G02*
X-19675000Y-13200002I0J249998D01*
G01*
X-19675000Y-12299998D01*
G75*
G02*
X-19425002Y-12050000I249998J0D01*
G01*
X-18899998Y-12050000D01*
G75*
G02*
X-18650000Y-12299998I0J-249998D01*
G01*
G37*
%TD.AperFunction*%
%TD*%
%TO.P,R5,1*%
%TO.N,VCC*%
%TA.AperFunction,SMDPad,CuDef*%
G36*
G01*
X-4450002Y-7575000D02*
X-3549998Y-7575000D01*
G75*
G02*
X-3300000Y-7824998I0J-249998D01*
G01*
X-3300000Y-8350002D01*
G75*
G02*
X-3549998Y-8600000I-249998J0D01*
G01*
X-4450002Y-8600000D01*
G75*
G02*
X-4700000Y-8350002I0J249998D01*
G01*
X-4700000Y-7824998D01*
G75*
G02*
X-4450002Y-7575000I249998J0D01*
G01*
G37*
%TD.AperFunction*%
%TO.P,R5,2*%
%TO.N,Net-(Q1-Pad1)*%
%TA.AperFunction,SMDPad,CuDef*%
G36*
G01*
X-4450002Y-9400000D02*
X-3549998Y-9400000D01*
G75*
G02*
X-3300000Y-9649998I0J-249998D01*
G01*
X-3300000Y-10175002D01*
G75*
G02*
X-3549998Y-10425000I-249998J0D01*
G01*
X-4450002Y-10425000D01*
G75*
G02*
X-4700000Y-10175002I0J249998D01*
G01*
X-4700000Y-9649998D01*
G75*
G02*
X-4450002Y-9400000I249998J0D01*
G01*
G37*
%TD.AperFunction*%
%TD*%
D12*
%TO.P,U1,1*%
%TO.N,Net-(Q1-Pad1)*%
X-12650000Y-14450000D03*
%TO.P,U1,2*%
%TO.N,VCC*%
X-12650000Y-13500000D03*
%TO.P,U1,3*%
%TO.N,Net-(R1-Pad1)*%
X-12650000Y-12550000D03*
%TO.P,U1,4*%
%TO.N,Net-(R2-Pad1)*%
X-14850000Y-12550000D03*
%TO.P,U1,5*%
%TO.N,GND*%
X-14850000Y-14450000D03*
%TD*%
D13*
%TO.N,VCC*%
X-2974990Y-10413180D02*
X-2974990Y-8525010D01*
X-6061810Y-13500000D02*
X-2974990Y-10413180D01*
X-12650000Y-13500000D02*
X-6061810Y-13500000D01*
X-2974990Y-8525010D02*
X-3500000Y-8000000D01*
X-3500000Y-8000000D02*
X-4000000Y-8000000D01*
%TO.N,Net-(J4-Pad1)*%
X-13750000Y-10000000D02*
X-13750000Y-4750000D01*
%TO.N,Net-(Q1-Pad1)*%
X-12800000Y-8000000D02*
X-11725010Y-9074990D01*
X-12650000Y-14450000D02*
X-13550000Y-14450000D01*
X-13550000Y-14450000D02*
X-13750000Y-14250000D01*
X-13750000Y-14250000D02*
X-13750000Y-12136410D01*
X-13750000Y-12136410D02*
X-12863590Y-11250000D01*
X-12863590Y-11250000D02*
X-9250000Y-11250000D01*
X-9250000Y-11250000D02*
X-8675010Y-10675010D01*
X-8675010Y-10675010D02*
X-8675010Y-9074990D01*
X-11725010Y-9074990D02*
X-8675010Y-9074990D01*
X-4837510Y-9074990D02*
X-8675010Y-9074990D01*
X-4000000Y-9912500D02*
X-4837510Y-9074990D01*
%TO.N,Net-(R1-Pad1)*%
X-6750000Y-12587500D02*
X-12412500Y-12587500D01*
X-6750000Y-12587500D02*
X-6750000Y-9750000D01*
%TO.N,Net-(R2-Pad1)*%
X-17337500Y-12750000D02*
X-15000000Y-12750000D01*
X-15000000Y-12750000D02*
X-14750000Y-12500000D01*
X-10862501Y-10775001D02*
X-13025001Y-10775001D01*
X-10000000Y-9912500D02*
X-10862501Y-10775001D01*
X-13025001Y-10775001D02*
X-14750000Y-12500000D01*
%TD*%
D14*
%TO.N,GND*%
X-15627000Y-6250000D02*
X-15624560Y-6274776D01*
X-15617333Y-6298601D01*
X-15605597Y-6320557D01*
X-15589803Y-6339803D01*
X-15570557Y-6355597D01*
X-15548601Y-6367333D01*
X-15524776Y-6374560D01*
X-15500000Y-6377000D01*
X-14401999Y-6377000D01*
X-14401999Y-7022241D01*
X-14445250Y-7023000D01*
X-14577000Y-7154750D01*
X-14577000Y-7877000D01*
X-14557000Y-7877000D01*
X-14557000Y-8123000D01*
X-14577000Y-8123000D01*
X-14577000Y-8845250D01*
X-14445250Y-8977000D01*
X-14402000Y-8977759D01*
X-14402000Y-9087139D01*
X-14444202Y-9109696D01*
X-14524448Y-9175552D01*
X-14590304Y-9255798D01*
X-14639239Y-9347350D01*
X-14669374Y-9446690D01*
X-14679549Y-9550000D01*
X-14679549Y-10450000D01*
X-14669374Y-10553310D01*
X-14639239Y-10652650D01*
X-14590304Y-10744202D01*
X-14524448Y-10824448D01*
X-14444202Y-10890304D01*
X-14352650Y-10939239D01*
X-14253310Y-10969374D01*
X-14151471Y-10979404D01*
X-14867517Y-11695451D01*
X-15380000Y-11695451D01*
X-15483310Y-11705626D01*
X-15582650Y-11735761D01*
X-15674202Y-11784696D01*
X-15754448Y-11850552D01*
X-15820304Y-11930798D01*
X-15869239Y-12022350D01*
X-15892188Y-12098000D01*
X-16325572Y-12098000D01*
X-16354790Y-12001678D01*
X-16426828Y-11866905D01*
X-16523775Y-11748775D01*
X-16641905Y-11651828D01*
X-16776678Y-11579790D01*
X-16922916Y-11535430D01*
X-17074998Y-11520451D01*
X-17600002Y-11520451D01*
X-17752084Y-11535430D01*
X-17898322Y-11579790D01*
X-18033095Y-11651828D01*
X-18151225Y-11748775D01*
X-18188907Y-11794690D01*
X-18209695Y-11755798D01*
X-18275552Y-11675552D01*
X-18355798Y-11609695D01*
X-18447350Y-11560760D01*
X-18546690Y-11530625D01*
X-18650000Y-11520450D01*
X-18907750Y-11523000D01*
X-19039500Y-11654750D01*
X-19039500Y-12627000D01*
X-19019500Y-12627000D01*
X-19019500Y-12873000D01*
X-19039500Y-12873000D01*
X-19039500Y-13845250D01*
X-18907750Y-13977000D01*
X-18650000Y-13979550D01*
X-18546690Y-13969375D01*
X-18447350Y-13939240D01*
X-18355798Y-13890305D01*
X-18275552Y-13824448D01*
X-18209695Y-13744202D01*
X-18188907Y-13705310D01*
X-18151225Y-13751225D01*
X-18033095Y-13848172D01*
X-17898322Y-13920210D01*
X-17752084Y-13964570D01*
X-17600002Y-13979549D01*
X-17074998Y-13979549D01*
X-16922916Y-13964570D01*
X-16776678Y-13920210D01*
X-16641905Y-13848172D01*
X-16523775Y-13751225D01*
X-16426828Y-13633095D01*
X-16354790Y-13498322D01*
X-16325572Y-13402000D01*
X-15405881Y-13402000D01*
X-15380000Y-13404549D01*
X-15006142Y-13404549D01*
X-15000000Y-13405154D01*
X-14993858Y-13404549D01*
X-14402000Y-13404549D01*
X-14402000Y-13596210D01*
X-14595250Y-13598000D01*
X-14727000Y-13729750D01*
X-14727000Y-14327000D01*
X-14707000Y-14327000D01*
X-14707000Y-14573000D01*
X-14727000Y-14573000D01*
X-14727000Y-15170250D01*
X-14595250Y-15302000D01*
X-14320000Y-15304550D01*
X-14216690Y-15294375D01*
X-14117350Y-15264240D01*
X-14025798Y-15215305D01*
X-13945552Y-15149448D01*
X-13879695Y-15069202D01*
X-13856359Y-15025542D01*
X-13800717Y-15055283D01*
X-13719483Y-15079925D01*
X-13677815Y-15092565D01*
X-13594387Y-15100782D01*
X-13554448Y-15149448D01*
X-13474202Y-15215304D01*
X-13382650Y-15264239D01*
X-13283310Y-15294374D01*
X-13180000Y-15304549D01*
X-12120000Y-15304549D01*
X-12016690Y-15294374D01*
X-11917350Y-15264239D01*
X-11825798Y-15215304D01*
X-11745552Y-15149448D01*
X-11679696Y-15069202D01*
X-11630761Y-14977650D01*
X-11614790Y-14925000D01*
X-7979550Y-14925000D01*
X-7969375Y-15028310D01*
X-7939240Y-15127650D01*
X-7890305Y-15219202D01*
X-7824448Y-15299448D01*
X-7744202Y-15365305D01*
X-7652650Y-15414240D01*
X-7553310Y-15444375D01*
X-7450000Y-15454550D01*
X-7004750Y-15452000D01*
X-6873000Y-15320250D01*
X-6873000Y-14535500D01*
X-6627000Y-14535500D01*
X-6627000Y-15320250D01*
X-6495250Y-15452000D01*
X-6050000Y-15454550D01*
X-5946690Y-15444375D01*
X-5847350Y-15414240D01*
X-5755798Y-15365305D01*
X-5675552Y-15299448D01*
X-5609695Y-15219202D01*
X-5560760Y-15127650D01*
X-5530625Y-15028310D01*
X-5520450Y-14925000D01*
X-5523000Y-14667250D01*
X-5654750Y-14535500D01*
X-6627000Y-14535500D01*
X-6873000Y-14535500D01*
X-7845250Y-14535500D01*
X-7977000Y-14667250D01*
X-7979550Y-14925000D01*
X-11614790Y-14925000D01*
X-11600626Y-14878310D01*
X-11590451Y-14775000D01*
X-11590451Y-14152000D01*
X-7977057Y-14152000D01*
X-7977000Y-14157750D01*
X-7845250Y-14289500D01*
X-6873000Y-14289500D01*
X-6873000Y-14269500D01*
X-6627000Y-14269500D01*
X-6627000Y-14289500D01*
X-5654750Y-14289500D01*
X-5523000Y-14157750D01*
X-5520450Y-13900000D01*
X-5522180Y-13882436D01*
X-2551999Y-10912256D01*
X-2551999Y-14222997D01*
X-2582173Y-14530733D01*
X-2663703Y-14800778D01*
X-2796137Y-15049848D01*
X-2974418Y-15268442D01*
X-3191772Y-15448254D01*
X-3439900Y-15582416D01*
X-3709374Y-15665832D01*
X-4015432Y-15698000D01*
X-18973008Y-15698000D01*
X-19280733Y-15667827D01*
X-19550778Y-15586297D01*
X-19799848Y-15453863D01*
X-20018442Y-15275582D01*
X-20198254Y-15058228D01*
X-20332416Y-14810100D01*
X-20343281Y-14775000D01*
X-15909550Y-14775000D01*
X-15899375Y-14878310D01*
X-15869240Y-14977650D01*
X-15820305Y-15069202D01*
X-15754448Y-15149448D01*
X-15674202Y-15215305D01*
X-15582650Y-15264240D01*
X-15483310Y-15294375D01*
X-15380000Y-15304550D01*
X-15104750Y-15302000D01*
X-14973000Y-15170250D01*
X-14973000Y-14573000D01*
X-15775250Y-14573000D01*
X-15907000Y-14704750D01*
X-15909550Y-14775000D01*
X-20343281Y-14775000D01*
X-20415832Y-14540626D01*
X-20448000Y-14234568D01*
X-20448000Y-14125000D01*
X-15909550Y-14125000D01*
X-15907000Y-14195250D01*
X-15775250Y-14327000D01*
X-14973000Y-14327000D01*
X-14973000Y-13729750D01*
X-15104750Y-13598000D01*
X-15380000Y-13595450D01*
X-15483310Y-13605625D01*
X-15582650Y-13635760D01*
X-15674202Y-13684695D01*
X-15754448Y-13750552D01*
X-15820305Y-13830798D01*
X-15869240Y-13922350D01*
X-15899375Y-14021690D01*
X-15909550Y-14125000D01*
X-20448000Y-14125000D01*
X-20448000Y-13450000D01*
X-20204550Y-13450000D01*
X-20194375Y-13553310D01*
X-20164240Y-13652650D01*
X-20115305Y-13744202D01*
X-20049448Y-13824448D01*
X-19969202Y-13890305D01*
X-19877650Y-13939240D01*
X-19778310Y-13969375D01*
X-19675000Y-13979550D01*
X-19417250Y-13977000D01*
X-19285500Y-13845250D01*
X-19285500Y-12873000D01*
X-20070250Y-12873000D01*
X-20202000Y-13004750D01*
X-20204550Y-13450000D01*
X-20448000Y-13450000D01*
X-20448000Y-12050000D01*
X-20204550Y-12050000D01*
X-20202000Y-12495250D01*
X-20070250Y-12627000D01*
X-19285500Y-12627000D01*
X-19285500Y-11654750D01*
X-19417250Y-11523000D01*
X-19675000Y-11520450D01*
X-19778310Y-11530625D01*
X-19877650Y-11560760D01*
X-19969202Y-11609695D01*
X-20049448Y-11675552D01*
X-20115305Y-11755798D01*
X-20164240Y-11847350D01*
X-20194375Y-11946690D01*
X-20204550Y-12050000D01*
X-20448000Y-12050000D01*
X-20448000Y-8450000D01*
X-15629550Y-8450000D01*
X-15619375Y-8553310D01*
X-15589240Y-8652650D01*
X-15540305Y-8744202D01*
X-15474448Y-8824448D01*
X-15394202Y-8890305D01*
X-15302650Y-8939240D01*
X-15203310Y-8969375D01*
X-15100000Y-8979550D01*
X-14954750Y-8977000D01*
X-14823000Y-8845250D01*
X-14823000Y-8123000D01*
X-15495250Y-8123000D01*
X-15627000Y-8254750D01*
X-15629550Y-8450000D01*
X-20448000Y-8450000D01*
X-20448000Y-7550000D01*
X-15629550Y-7550000D01*
X-15627000Y-7745250D01*
X-15495250Y-7877000D01*
X-14823000Y-7877000D01*
X-14823000Y-7154750D01*
X-14954750Y-7023000D01*
X-15100000Y-7020450D01*
X-15203310Y-7030625D01*
X-15302650Y-7060760D01*
X-15394202Y-7109695D01*
X-15474448Y-7175552D01*
X-15540305Y-7255798D01*
X-15589240Y-7347350D01*
X-15619375Y-7446690D01*
X-15629550Y-7550000D01*
X-20448000Y-7550000D01*
X-20448000Y-5750000D01*
X-20029550Y-5750000D01*
X-20019375Y-5853310D01*
X-19989240Y-5952650D01*
X-19940305Y-6044202D01*
X-19874448Y-6124448D01*
X-19794202Y-6190305D01*
X-19702650Y-6239240D01*
X-19603310Y-6269375D01*
X-19500000Y-6279550D01*
X-18504750Y-6277000D01*
X-18373000Y-6145250D01*
X-18373000Y-4623000D01*
X-18127000Y-4623000D01*
X-18127000Y-6145250D01*
X-17995250Y-6277000D01*
X-17000000Y-6279550D01*
X-16896690Y-6269375D01*
X-16797350Y-6239240D01*
X-16705798Y-6190305D01*
X-16625552Y-6124448D01*
X-16559695Y-6044202D01*
X-16510760Y-5952650D01*
X-16480625Y-5853310D01*
X-16470450Y-5750000D01*
X-16473000Y-4754750D01*
X-16604750Y-4623000D01*
X-18127000Y-4623000D01*
X-18373000Y-4623000D01*
X-19895250Y-4623000D01*
X-20027000Y-4754750D01*
X-20029550Y-5750000D01*
X-20448000Y-5750000D01*
X-20448000Y-3250000D01*
X-20029550Y-3250000D01*
X-20027000Y-4245250D01*
X-19895250Y-4377000D01*
X-18373000Y-4377000D01*
X-18373000Y-2854750D01*
X-18127000Y-2854750D01*
X-18127000Y-4377000D01*
X-16604750Y-4377000D01*
X-16473000Y-4245250D01*
X-16470450Y-3250000D01*
X-16480625Y-3146690D01*
X-16510760Y-3047350D01*
X-16559695Y-2955798D01*
X-16625552Y-2875552D01*
X-16705798Y-2809695D01*
X-16797350Y-2760760D01*
X-16896690Y-2730625D01*
X-17000000Y-2720450D01*
X-17995250Y-2723000D01*
X-18127000Y-2854750D01*
X-18373000Y-2854750D01*
X-18504750Y-2723000D01*
X-19500000Y-2720450D01*
X-19603310Y-2730625D01*
X-19702650Y-2760760D01*
X-19794202Y-2809695D01*
X-19874448Y-2875552D01*
X-19940305Y-2955798D01*
X-19989240Y-3047350D01*
X-20019375Y-3146690D01*
X-20029550Y-3250000D01*
X-20448000Y-3250000D01*
X-20448000Y-2552000D01*
X-15627000Y-2552000D01*
X-15627000Y-6250000D01*
%TA.AperFunction,Conductor*%
D15*
G36*
X-15627000Y-6250000D02*
G01*
X-15624560Y-6274776D01*
X-15617333Y-6298601D01*
X-15605597Y-6320557D01*
X-15589803Y-6339803D01*
X-15570557Y-6355597D01*
X-15548601Y-6367333D01*
X-15524776Y-6374560D01*
X-15500000Y-6377000D01*
X-14401999Y-6377000D01*
X-14401999Y-7022241D01*
X-14445250Y-7023000D01*
X-14577000Y-7154750D01*
X-14577000Y-7877000D01*
X-14557000Y-7877000D01*
X-14557000Y-8123000D01*
X-14577000Y-8123000D01*
X-14577000Y-8845250D01*
X-14445250Y-8977000D01*
X-14402000Y-8977759D01*
X-14402000Y-9087139D01*
X-14444202Y-9109696D01*
X-14524448Y-9175552D01*
X-14590304Y-9255798D01*
X-14639239Y-9347350D01*
X-14669374Y-9446690D01*
X-14679549Y-9550000D01*
X-14679549Y-10450000D01*
X-14669374Y-10553310D01*
X-14639239Y-10652650D01*
X-14590304Y-10744202D01*
X-14524448Y-10824448D01*
X-14444202Y-10890304D01*
X-14352650Y-10939239D01*
X-14253310Y-10969374D01*
X-14151471Y-10979404D01*
X-14867517Y-11695451D01*
X-15380000Y-11695451D01*
X-15483310Y-11705626D01*
X-15582650Y-11735761D01*
X-15674202Y-11784696D01*
X-15754448Y-11850552D01*
X-15820304Y-11930798D01*
X-15869239Y-12022350D01*
X-15892188Y-12098000D01*
X-16325572Y-12098000D01*
X-16354790Y-12001678D01*
X-16426828Y-11866905D01*
X-16523775Y-11748775D01*
X-16641905Y-11651828D01*
X-16776678Y-11579790D01*
X-16922916Y-11535430D01*
X-17074998Y-11520451D01*
X-17600002Y-11520451D01*
X-17752084Y-11535430D01*
X-17898322Y-11579790D01*
X-18033095Y-11651828D01*
X-18151225Y-11748775D01*
X-18188907Y-11794690D01*
X-18209695Y-11755798D01*
X-18275552Y-11675552D01*
X-18355798Y-11609695D01*
X-18447350Y-11560760D01*
X-18546690Y-11530625D01*
X-18650000Y-11520450D01*
X-18907750Y-11523000D01*
X-19039500Y-11654750D01*
X-19039500Y-12627000D01*
X-19019500Y-12627000D01*
X-19019500Y-12873000D01*
X-19039500Y-12873000D01*
X-19039500Y-13845250D01*
X-18907750Y-13977000D01*
X-18650000Y-13979550D01*
X-18546690Y-13969375D01*
X-18447350Y-13939240D01*
X-18355798Y-13890305D01*
X-18275552Y-13824448D01*
X-18209695Y-13744202D01*
X-18188907Y-13705310D01*
X-18151225Y-13751225D01*
X-18033095Y-13848172D01*
X-17898322Y-13920210D01*
X-17752084Y-13964570D01*
X-17600002Y-13979549D01*
X-17074998Y-13979549D01*
X-16922916Y-13964570D01*
X-16776678Y-13920210D01*
X-16641905Y-13848172D01*
X-16523775Y-13751225D01*
X-16426828Y-13633095D01*
X-16354790Y-13498322D01*
X-16325572Y-13402000D01*
X-15405881Y-13402000D01*
X-15380000Y-13404549D01*
X-15006142Y-13404549D01*
X-15000000Y-13405154D01*
X-14993858Y-13404549D01*
X-14402000Y-13404549D01*
X-14402000Y-13596210D01*
X-14595250Y-13598000D01*
X-14727000Y-13729750D01*
X-14727000Y-14327000D01*
X-14707000Y-14327000D01*
X-14707000Y-14573000D01*
X-14727000Y-14573000D01*
X-14727000Y-15170250D01*
X-14595250Y-15302000D01*
X-14320000Y-15304550D01*
X-14216690Y-15294375D01*
X-14117350Y-15264240D01*
X-14025798Y-15215305D01*
X-13945552Y-15149448D01*
X-13879695Y-15069202D01*
X-13856359Y-15025542D01*
X-13800717Y-15055283D01*
X-13719483Y-15079925D01*
X-13677815Y-15092565D01*
X-13594387Y-15100782D01*
X-13554448Y-15149448D01*
X-13474202Y-15215304D01*
X-13382650Y-15264239D01*
X-13283310Y-15294374D01*
X-13180000Y-15304549D01*
X-12120000Y-15304549D01*
X-12016690Y-15294374D01*
X-11917350Y-15264239D01*
X-11825798Y-15215304D01*
X-11745552Y-15149448D01*
X-11679696Y-15069202D01*
X-11630761Y-14977650D01*
X-11614790Y-14925000D01*
X-7979550Y-14925000D01*
X-7969375Y-15028310D01*
X-7939240Y-15127650D01*
X-7890305Y-15219202D01*
X-7824448Y-15299448D01*
X-7744202Y-15365305D01*
X-7652650Y-15414240D01*
X-7553310Y-15444375D01*
X-7450000Y-15454550D01*
X-7004750Y-15452000D01*
X-6873000Y-15320250D01*
X-6873000Y-14535500D01*
X-6627000Y-14535500D01*
X-6627000Y-15320250D01*
X-6495250Y-15452000D01*
X-6050000Y-15454550D01*
X-5946690Y-15444375D01*
X-5847350Y-15414240D01*
X-5755798Y-15365305D01*
X-5675552Y-15299448D01*
X-5609695Y-15219202D01*
X-5560760Y-15127650D01*
X-5530625Y-15028310D01*
X-5520450Y-14925000D01*
X-5523000Y-14667250D01*
X-5654750Y-14535500D01*
X-6627000Y-14535500D01*
X-6873000Y-14535500D01*
X-7845250Y-14535500D01*
X-7977000Y-14667250D01*
X-7979550Y-14925000D01*
X-11614790Y-14925000D01*
X-11600626Y-14878310D01*
X-11590451Y-14775000D01*
X-11590451Y-14152000D01*
X-7977057Y-14152000D01*
X-7977000Y-14157750D01*
X-7845250Y-14289500D01*
X-6873000Y-14289500D01*
X-6873000Y-14269500D01*
X-6627000Y-14269500D01*
X-6627000Y-14289500D01*
X-5654750Y-14289500D01*
X-5523000Y-14157750D01*
X-5520450Y-13900000D01*
X-5522180Y-13882436D01*
X-2551999Y-10912256D01*
X-2551999Y-14222997D01*
X-2582173Y-14530733D01*
X-2663703Y-14800778D01*
X-2796137Y-15049848D01*
X-2974418Y-15268442D01*
X-3191772Y-15448254D01*
X-3439900Y-15582416D01*
X-3709374Y-15665832D01*
X-4015432Y-15698000D01*
X-18973008Y-15698000D01*
X-19280733Y-15667827D01*
X-19550778Y-15586297D01*
X-19799848Y-15453863D01*
X-20018442Y-15275582D01*
X-20198254Y-15058228D01*
X-20332416Y-14810100D01*
X-20343281Y-14775000D01*
X-15909550Y-14775000D01*
X-15899375Y-14878310D01*
X-15869240Y-14977650D01*
X-15820305Y-15069202D01*
X-15754448Y-15149448D01*
X-15674202Y-15215305D01*
X-15582650Y-15264240D01*
X-15483310Y-15294375D01*
X-15380000Y-15304550D01*
X-15104750Y-15302000D01*
X-14973000Y-15170250D01*
X-14973000Y-14573000D01*
X-15775250Y-14573000D01*
X-15907000Y-14704750D01*
X-15909550Y-14775000D01*
X-20343281Y-14775000D01*
X-20415832Y-14540626D01*
X-20448000Y-14234568D01*
X-20448000Y-14125000D01*
X-15909550Y-14125000D01*
X-15907000Y-14195250D01*
X-15775250Y-14327000D01*
X-14973000Y-14327000D01*
X-14973000Y-13729750D01*
X-15104750Y-13598000D01*
X-15380000Y-13595450D01*
X-15483310Y-13605625D01*
X-15582650Y-13635760D01*
X-15674202Y-13684695D01*
X-15754448Y-13750552D01*
X-15820305Y-13830798D01*
X-15869240Y-13922350D01*
X-15899375Y-14021690D01*
X-15909550Y-14125000D01*
X-20448000Y-14125000D01*
X-20448000Y-13450000D01*
X-20204550Y-13450000D01*
X-20194375Y-13553310D01*
X-20164240Y-13652650D01*
X-20115305Y-13744202D01*
X-20049448Y-13824448D01*
X-19969202Y-13890305D01*
X-19877650Y-13939240D01*
X-19778310Y-13969375D01*
X-19675000Y-13979550D01*
X-19417250Y-13977000D01*
X-19285500Y-13845250D01*
X-19285500Y-12873000D01*
X-20070250Y-12873000D01*
X-20202000Y-13004750D01*
X-20204550Y-13450000D01*
X-20448000Y-13450000D01*
X-20448000Y-12050000D01*
X-20204550Y-12050000D01*
X-20202000Y-12495250D01*
X-20070250Y-12627000D01*
X-19285500Y-12627000D01*
X-19285500Y-11654750D01*
X-19417250Y-11523000D01*
X-19675000Y-11520450D01*
X-19778310Y-11530625D01*
X-19877650Y-11560760D01*
X-19969202Y-11609695D01*
X-20049448Y-11675552D01*
X-20115305Y-11755798D01*
X-20164240Y-11847350D01*
X-20194375Y-11946690D01*
X-20204550Y-12050000D01*
X-20448000Y-12050000D01*
X-20448000Y-8450000D01*
X-15629550Y-8450000D01*
X-15619375Y-8553310D01*
X-15589240Y-8652650D01*
X-15540305Y-8744202D01*
X-15474448Y-8824448D01*
X-15394202Y-8890305D01*
X-15302650Y-8939240D01*
X-15203310Y-8969375D01*
X-15100000Y-8979550D01*
X-14954750Y-8977000D01*
X-14823000Y-8845250D01*
X-14823000Y-8123000D01*
X-15495250Y-8123000D01*
X-15627000Y-8254750D01*
X-15629550Y-8450000D01*
X-20448000Y-8450000D01*
X-20448000Y-7550000D01*
X-15629550Y-7550000D01*
X-15627000Y-7745250D01*
X-15495250Y-7877000D01*
X-14823000Y-7877000D01*
X-14823000Y-7154750D01*
X-14954750Y-7023000D01*
X-15100000Y-7020450D01*
X-15203310Y-7030625D01*
X-15302650Y-7060760D01*
X-15394202Y-7109695D01*
X-15474448Y-7175552D01*
X-15540305Y-7255798D01*
X-15589240Y-7347350D01*
X-15619375Y-7446690D01*
X-15629550Y-7550000D01*
X-20448000Y-7550000D01*
X-20448000Y-5750000D01*
X-20029550Y-5750000D01*
X-20019375Y-5853310D01*
X-19989240Y-5952650D01*
X-19940305Y-6044202D01*
X-19874448Y-6124448D01*
X-19794202Y-6190305D01*
X-19702650Y-6239240D01*
X-19603310Y-6269375D01*
X-19500000Y-6279550D01*
X-18504750Y-6277000D01*
X-18373000Y-6145250D01*
X-18373000Y-4623000D01*
X-18127000Y-4623000D01*
X-18127000Y-6145250D01*
X-17995250Y-6277000D01*
X-17000000Y-6279550D01*
X-16896690Y-6269375D01*
X-16797350Y-6239240D01*
X-16705798Y-6190305D01*
X-16625552Y-6124448D01*
X-16559695Y-6044202D01*
X-16510760Y-5952650D01*
X-16480625Y-5853310D01*
X-16470450Y-5750000D01*
X-16473000Y-4754750D01*
X-16604750Y-4623000D01*
X-18127000Y-4623000D01*
X-18373000Y-4623000D01*
X-19895250Y-4623000D01*
X-20027000Y-4754750D01*
X-20029550Y-5750000D01*
X-20448000Y-5750000D01*
X-20448000Y-3250000D01*
X-20029550Y-3250000D01*
X-20027000Y-4245250D01*
X-19895250Y-4377000D01*
X-18373000Y-4377000D01*
X-18373000Y-2854750D01*
X-18127000Y-2854750D01*
X-18127000Y-4377000D01*
X-16604750Y-4377000D01*
X-16473000Y-4245250D01*
X-16470450Y-3250000D01*
X-16480625Y-3146690D01*
X-16510760Y-3047350D01*
X-16559695Y-2955798D01*
X-16625552Y-2875552D01*
X-16705798Y-2809695D01*
X-16797350Y-2760760D01*
X-16896690Y-2730625D01*
X-17000000Y-2720450D01*
X-17995250Y-2723000D01*
X-18127000Y-2854750D01*
X-18373000Y-2854750D01*
X-18504750Y-2723000D01*
X-19500000Y-2720450D01*
X-19603310Y-2730625D01*
X-19702650Y-2760760D01*
X-19794202Y-2809695D01*
X-19874448Y-2875552D01*
X-19940305Y-2955798D01*
X-19989240Y-3047350D01*
X-20019375Y-3146690D01*
X-20029550Y-3250000D01*
X-20448000Y-3250000D01*
X-20448000Y-2552000D01*
X-15627000Y-2552000D01*
X-15627000Y-6250000D01*
G37*
%TD.AperFunction*%
%TD*%
D14*
%TO.N,VCC*%
X-2651999Y-8873000D02*
X-2848362Y-8873000D01*
X-2810760Y-8802650D01*
X-2780625Y-8703310D01*
X-2770450Y-8600000D01*
X-2773000Y-8342250D01*
X-2904750Y-8210500D01*
X-3877000Y-8210500D01*
X-3877000Y-8230500D01*
X-4123000Y-8230500D01*
X-4123000Y-8210500D01*
X-5095250Y-8210500D01*
X-5207740Y-8322990D01*
X-5542260Y-8322990D01*
X-5654750Y-8210500D01*
X-6627000Y-8210500D01*
X-6627000Y-8230500D01*
X-6873000Y-8230500D01*
X-6873000Y-8210500D01*
X-6893000Y-8210500D01*
X-6893000Y-7964500D01*
X-6873000Y-7964500D01*
X-6873000Y-7944500D01*
X-6627000Y-7944500D01*
X-6627000Y-7964500D01*
X-5654750Y-7964500D01*
X-5523000Y-7832750D01*
X-5520450Y-7575000D01*
X-5229550Y-7575000D01*
X-5227000Y-7832750D01*
X-5095250Y-7964500D01*
X-4123000Y-7964500D01*
X-4123000Y-7179750D01*
X-3877000Y-7179750D01*
X-3877000Y-7964500D01*
X-2904750Y-7964500D01*
X-2773000Y-7832750D01*
X-2770450Y-7575000D01*
X-2780625Y-7471690D01*
X-2810760Y-7372350D01*
X-2859695Y-7280798D01*
X-2925552Y-7200552D01*
X-3005798Y-7134695D01*
X-3097350Y-7085760D01*
X-3196690Y-7055625D01*
X-3300000Y-7045450D01*
X-3745250Y-7048000D01*
X-3877000Y-7179750D01*
X-4123000Y-7179750D01*
X-4254750Y-7048000D01*
X-4700000Y-7045450D01*
X-4803310Y-7055625D01*
X-4902650Y-7085760D01*
X-4994202Y-7134695D01*
X-5074448Y-7200552D01*
X-5140305Y-7280798D01*
X-5189240Y-7372350D01*
X-5219375Y-7471690D01*
X-5229550Y-7575000D01*
X-5520450Y-7575000D01*
X-5530625Y-7471690D01*
X-5560760Y-7372350D01*
X-5609695Y-7280798D01*
X-5675552Y-7200552D01*
X-5755798Y-7134695D01*
X-5847350Y-7085760D01*
X-5946690Y-7055625D01*
X-6050000Y-7045450D01*
X-6495250Y-7048000D01*
X-6623000Y-7175750D01*
X-6623000Y-5750000D01*
X-6529550Y-5750000D01*
X-6519375Y-5853310D01*
X-6489240Y-5952650D01*
X-6440305Y-6044202D01*
X-6374448Y-6124448D01*
X-6294202Y-6190305D01*
X-6202650Y-6239240D01*
X-6103310Y-6269375D01*
X-6000000Y-6279550D01*
X-5004750Y-6277000D01*
X-4873000Y-6145250D01*
X-4873000Y-4623000D01*
X-4627000Y-4623000D01*
X-4627000Y-6145250D01*
X-4495250Y-6277000D01*
X-3500000Y-6279550D01*
X-3396690Y-6269375D01*
X-3297350Y-6239240D01*
X-3205798Y-6190305D01*
X-3125552Y-6124448D01*
X-3059695Y-6044202D01*
X-3010760Y-5952650D01*
X-2980625Y-5853310D01*
X-2970450Y-5750000D01*
X-2973000Y-4754750D01*
X-3104750Y-4623000D01*
X-4627000Y-4623000D01*
X-4873000Y-4623000D01*
X-6395250Y-4623000D01*
X-6527000Y-4754750D01*
X-6529550Y-5750000D01*
X-6623000Y-5750000D01*
X-6623000Y-3250000D01*
X-6529550Y-3250000D01*
X-6527000Y-4245250D01*
X-6395250Y-4377000D01*
X-4873000Y-4377000D01*
X-4873000Y-2854750D01*
X-4627000Y-2854750D01*
X-4627000Y-4377000D01*
X-3104750Y-4377000D01*
X-2973000Y-4245250D01*
X-2970450Y-3250000D01*
X-2980625Y-3146690D01*
X-3010760Y-3047350D01*
X-3059695Y-2955798D01*
X-3125552Y-2875552D01*
X-3205798Y-2809695D01*
X-3297350Y-2760760D01*
X-3396690Y-2730625D01*
X-3500000Y-2720450D01*
X-4495250Y-2723000D01*
X-4627000Y-2854750D01*
X-4873000Y-2854750D01*
X-5004750Y-2723000D01*
X-6000000Y-2720450D01*
X-6103310Y-2730625D01*
X-6202650Y-2760760D01*
X-6294202Y-2809695D01*
X-6374448Y-2875552D01*
X-6440305Y-2955798D01*
X-6489240Y-3047350D01*
X-6519375Y-3146690D01*
X-6529550Y-3250000D01*
X-6623000Y-3250000D01*
X-6623000Y-2652000D01*
X-2652000Y-2652000D01*
X-2651999Y-8873000D01*
%TA.AperFunction,Conductor*%
D15*
G36*
X-2651999Y-8873000D02*
G01*
X-2848362Y-8873000D01*
X-2810760Y-8802650D01*
X-2780625Y-8703310D01*
X-2770450Y-8600000D01*
X-2773000Y-8342250D01*
X-2904750Y-8210500D01*
X-3877000Y-8210500D01*
X-3877000Y-8230500D01*
X-4123000Y-8230500D01*
X-4123000Y-8210500D01*
X-5095250Y-8210500D01*
X-5207740Y-8322990D01*
X-5542260Y-8322990D01*
X-5654750Y-8210500D01*
X-6627000Y-8210500D01*
X-6627000Y-8230500D01*
X-6873000Y-8230500D01*
X-6873000Y-8210500D01*
X-6893000Y-8210500D01*
X-6893000Y-7964500D01*
X-6873000Y-7964500D01*
X-6873000Y-7944500D01*
X-6627000Y-7944500D01*
X-6627000Y-7964500D01*
X-5654750Y-7964500D01*
X-5523000Y-7832750D01*
X-5520450Y-7575000D01*
X-5229550Y-7575000D01*
X-5227000Y-7832750D01*
X-5095250Y-7964500D01*
X-4123000Y-7964500D01*
X-4123000Y-7179750D01*
X-3877000Y-7179750D01*
X-3877000Y-7964500D01*
X-2904750Y-7964500D01*
X-2773000Y-7832750D01*
X-2770450Y-7575000D01*
X-2780625Y-7471690D01*
X-2810760Y-7372350D01*
X-2859695Y-7280798D01*
X-2925552Y-7200552D01*
X-3005798Y-7134695D01*
X-3097350Y-7085760D01*
X-3196690Y-7055625D01*
X-3300000Y-7045450D01*
X-3745250Y-7048000D01*
X-3877000Y-7179750D01*
X-4123000Y-7179750D01*
X-4254750Y-7048000D01*
X-4700000Y-7045450D01*
X-4803310Y-7055625D01*
X-4902650Y-7085760D01*
X-4994202Y-7134695D01*
X-5074448Y-7200552D01*
X-5140305Y-7280798D01*
X-5189240Y-7372350D01*
X-5219375Y-7471690D01*
X-5229550Y-7575000D01*
X-5520450Y-7575000D01*
X-5530625Y-7471690D01*
X-5560760Y-7372350D01*
X-5609695Y-7280798D01*
X-5675552Y-7200552D01*
X-5755798Y-7134695D01*
X-5847350Y-7085760D01*
X-5946690Y-7055625D01*
X-6050000Y-7045450D01*
X-6495250Y-7048000D01*
X-6623000Y-7175750D01*
X-6623000Y-5750000D01*
X-6529550Y-5750000D01*
X-6519375Y-5853310D01*
X-6489240Y-5952650D01*
X-6440305Y-6044202D01*
X-6374448Y-6124448D01*
X-6294202Y-6190305D01*
X-6202650Y-6239240D01*
X-6103310Y-6269375D01*
X-6000000Y-6279550D01*
X-5004750Y-6277000D01*
X-4873000Y-6145250D01*
X-4873000Y-4623000D01*
X-4627000Y-4623000D01*
X-4627000Y-6145250D01*
X-4495250Y-6277000D01*
X-3500000Y-6279550D01*
X-3396690Y-6269375D01*
X-3297350Y-6239240D01*
X-3205798Y-6190305D01*
X-3125552Y-6124448D01*
X-3059695Y-6044202D01*
X-3010760Y-5952650D01*
X-2980625Y-5853310D01*
X-2970450Y-5750000D01*
X-2973000Y-4754750D01*
X-3104750Y-4623000D01*
X-4627000Y-4623000D01*
X-4873000Y-4623000D01*
X-6395250Y-4623000D01*
X-6527000Y-4754750D01*
X-6529550Y-5750000D01*
X-6623000Y-5750000D01*
X-6623000Y-3250000D01*
X-6529550Y-3250000D01*
X-6527000Y-4245250D01*
X-6395250Y-4377000D01*
X-4873000Y-4377000D01*
X-4873000Y-2854750D01*
X-4627000Y-2854750D01*
X-4627000Y-4377000D01*
X-3104750Y-4377000D01*
X-2973000Y-4245250D01*
X-2970450Y-3250000D01*
X-2980625Y-3146690D01*
X-3010760Y-3047350D01*
X-3059695Y-2955798D01*
X-3125552Y-2875552D01*
X-3205798Y-2809695D01*
X-3297350Y-2760760D01*
X-3396690Y-2730625D01*
X-3500000Y-2720450D01*
X-4495250Y-2723000D01*
X-4627000Y-2854750D01*
X-4873000Y-2854750D01*
X-5004750Y-2723000D01*
X-6000000Y-2720450D01*
X-6103310Y-2730625D01*
X-6202650Y-2760760D01*
X-6294202Y-2809695D01*
X-6374448Y-2875552D01*
X-6440305Y-2955798D01*
X-6489240Y-3047350D01*
X-6519375Y-3146690D01*
X-6529550Y-3250000D01*
X-6623000Y-3250000D01*
X-6623000Y-2652000D01*
X-2652000Y-2652000D01*
X-2651999Y-8873000D01*
G37*
%TD.AperFunction*%
%TD*%
D14*
%TO.N,+5V*%
X-7377000Y-6373000D02*
X-8500000Y-6373000D01*
X-8524776Y-6375440D01*
X-8548601Y-6382667D01*
X-8570557Y-6394403D01*
X-8589803Y-6410197D01*
X-8605597Y-6429443D01*
X-8617333Y-6451399D01*
X-8624560Y-6475224D01*
X-8627000Y-6500000D01*
X-8627000Y-8322990D01*
X-8638072Y-8322990D01*
X-8675010Y-8319352D01*
X-8711948Y-8322990D01*
X-8872958Y-8322990D01*
X-8873000Y-8317250D01*
X-8979750Y-8210500D01*
X-9877000Y-8210500D01*
X-9877000Y-8230500D01*
X-10123000Y-8230500D01*
X-10123000Y-8210500D01*
X-11020250Y-8210500D01*
X-11127000Y-8317250D01*
X-11127042Y-8322990D01*
X-11373000Y-8322990D01*
X-11373000Y-7575000D01*
X-11129066Y-7575000D01*
X-11127000Y-7857750D01*
X-11020250Y-7964500D01*
X-10123000Y-7964500D01*
X-10123000Y-7254750D01*
X-9877000Y-7254750D01*
X-9877000Y-7964500D01*
X-8979750Y-7964500D01*
X-8873000Y-7857750D01*
X-8870934Y-7575000D01*
X-8879178Y-7491293D01*
X-8903595Y-7410804D01*
X-8943245Y-7336624D01*
X-8996605Y-7271605D01*
X-9061624Y-7218245D01*
X-9135804Y-7178595D01*
X-9216293Y-7154178D01*
X-9300000Y-7145934D01*
X-9770250Y-7148000D01*
X-9877000Y-7254750D01*
X-10123000Y-7254750D01*
X-10229750Y-7148000D01*
X-10700000Y-7145934D01*
X-10783707Y-7154178D01*
X-10864196Y-7178595D01*
X-10938376Y-7218245D01*
X-11003395Y-7271605D01*
X-11056755Y-7336624D01*
X-11096405Y-7410804D01*
X-11120822Y-7491293D01*
X-11129066Y-7575000D01*
X-11373000Y-7575000D01*
X-11373000Y-5750000D01*
X-10929066Y-5750000D01*
X-10920822Y-5833707D01*
X-10896405Y-5914196D01*
X-10856755Y-5988376D01*
X-10803395Y-6053395D01*
X-10738376Y-6106755D01*
X-10664196Y-6146405D01*
X-10583707Y-6170822D01*
X-10500000Y-6179066D01*
X-9479750Y-6177000D01*
X-9373000Y-6070250D01*
X-9373000Y-4623000D01*
X-9127000Y-4623000D01*
X-9127000Y-6070250D01*
X-9020250Y-6177000D01*
X-8000000Y-6179066D01*
X-7916293Y-6170822D01*
X-7835804Y-6146405D01*
X-7761624Y-6106755D01*
X-7696605Y-6053395D01*
X-7643245Y-5988376D01*
X-7603595Y-5914196D01*
X-7579178Y-5833707D01*
X-7570934Y-5750000D01*
X-7573000Y-4729750D01*
X-7679750Y-4623000D01*
X-9127000Y-4623000D01*
X-9373000Y-4623000D01*
X-10820250Y-4623000D01*
X-10927000Y-4729750D01*
X-10929066Y-5750000D01*
X-11373000Y-5750000D01*
X-11373000Y-3250000D01*
X-10929066Y-3250000D01*
X-10927000Y-4270250D01*
X-10820250Y-4377000D01*
X-9373000Y-4377000D01*
X-9373000Y-2929750D01*
X-9127000Y-2929750D01*
X-9127000Y-4377000D01*
X-7679750Y-4377000D01*
X-7573000Y-4270250D01*
X-7570934Y-3250000D01*
X-7579178Y-3166293D01*
X-7603595Y-3085804D01*
X-7643245Y-3011624D01*
X-7696605Y-2946605D01*
X-7761624Y-2893245D01*
X-7835804Y-2853595D01*
X-7916293Y-2829178D01*
X-8000000Y-2820934D01*
X-9020250Y-2823000D01*
X-9127000Y-2929750D01*
X-9373000Y-2929750D01*
X-9479750Y-2823000D01*
X-10500000Y-2820934D01*
X-10583707Y-2829178D01*
X-10664196Y-2853595D01*
X-10738376Y-2893245D01*
X-10803395Y-2946605D01*
X-10856755Y-3011624D01*
X-10896405Y-3085804D01*
X-10920822Y-3166293D01*
X-10929066Y-3250000D01*
X-11373000Y-3250000D01*
X-11373000Y-2652000D01*
X-7377000Y-2652000D01*
X-7377000Y-6373000D01*
%TA.AperFunction,Conductor*%
D15*
G36*
X-7377000Y-6373000D02*
G01*
X-8500000Y-6373000D01*
X-8524776Y-6375440D01*
X-8548601Y-6382667D01*
X-8570557Y-6394403D01*
X-8589803Y-6410197D01*
X-8605597Y-6429443D01*
X-8617333Y-6451399D01*
X-8624560Y-6475224D01*
X-8627000Y-6500000D01*
X-8627000Y-8322990D01*
X-8638072Y-8322990D01*
X-8675010Y-8319352D01*
X-8711948Y-8322990D01*
X-8872958Y-8322990D01*
X-8873000Y-8317250D01*
X-8979750Y-8210500D01*
X-9877000Y-8210500D01*
X-9877000Y-8230500D01*
X-10123000Y-8230500D01*
X-10123000Y-8210500D01*
X-11020250Y-8210500D01*
X-11127000Y-8317250D01*
X-11127042Y-8322990D01*
X-11373000Y-8322990D01*
X-11373000Y-7575000D01*
X-11129066Y-7575000D01*
X-11127000Y-7857750D01*
X-11020250Y-7964500D01*
X-10123000Y-7964500D01*
X-10123000Y-7254750D01*
X-9877000Y-7254750D01*
X-9877000Y-7964500D01*
X-8979750Y-7964500D01*
X-8873000Y-7857750D01*
X-8870934Y-7575000D01*
X-8879178Y-7491293D01*
X-8903595Y-7410804D01*
X-8943245Y-7336624D01*
X-8996605Y-7271605D01*
X-9061624Y-7218245D01*
X-9135804Y-7178595D01*
X-9216293Y-7154178D01*
X-9300000Y-7145934D01*
X-9770250Y-7148000D01*
X-9877000Y-7254750D01*
X-10123000Y-7254750D01*
X-10229750Y-7148000D01*
X-10700000Y-7145934D01*
X-10783707Y-7154178D01*
X-10864196Y-7178595D01*
X-10938376Y-7218245D01*
X-11003395Y-7271605D01*
X-11056755Y-7336624D01*
X-11096405Y-7410804D01*
X-11120822Y-7491293D01*
X-11129066Y-7575000D01*
X-11373000Y-7575000D01*
X-11373000Y-5750000D01*
X-10929066Y-5750000D01*
X-10920822Y-5833707D01*
X-10896405Y-5914196D01*
X-10856755Y-5988376D01*
X-10803395Y-6053395D01*
X-10738376Y-6106755D01*
X-10664196Y-6146405D01*
X-10583707Y-6170822D01*
X-10500000Y-6179066D01*
X-9479750Y-6177000D01*
X-9373000Y-6070250D01*
X-9373000Y-4623000D01*
X-9127000Y-4623000D01*
X-9127000Y-6070250D01*
X-9020250Y-6177000D01*
X-8000000Y-6179066D01*
X-7916293Y-6170822D01*
X-7835804Y-6146405D01*
X-7761624Y-6106755D01*
X-7696605Y-6053395D01*
X-7643245Y-5988376D01*
X-7603595Y-5914196D01*
X-7579178Y-5833707D01*
X-7570934Y-5750000D01*
X-7573000Y-4729750D01*
X-7679750Y-4623000D01*
X-9127000Y-4623000D01*
X-9373000Y-4623000D01*
X-10820250Y-4623000D01*
X-10927000Y-4729750D01*
X-10929066Y-5750000D01*
X-11373000Y-5750000D01*
X-11373000Y-3250000D01*
X-10929066Y-3250000D01*
X-10927000Y-4270250D01*
X-10820250Y-4377000D01*
X-9373000Y-4377000D01*
X-9373000Y-2929750D01*
X-9127000Y-2929750D01*
X-9127000Y-4377000D01*
X-7679750Y-4377000D01*
X-7573000Y-4270250D01*
X-7570934Y-3250000D01*
X-7579178Y-3166293D01*
X-7603595Y-3085804D01*
X-7643245Y-3011624D01*
X-7696605Y-2946605D01*
X-7761624Y-2893245D01*
X-7835804Y-2853595D01*
X-7916293Y-2829178D01*
X-8000000Y-2820934D01*
X-9020250Y-2823000D01*
X-9127000Y-2929750D01*
X-9373000Y-2929750D01*
X-9479750Y-2823000D01*
X-10500000Y-2820934D01*
X-10583707Y-2829178D01*
X-10664196Y-2853595D01*
X-10738376Y-2893245D01*
X-10803395Y-2946605D01*
X-10856755Y-3011624D01*
X-10896405Y-3085804D01*
X-10920822Y-3166293D01*
X-10929066Y-3250000D01*
X-11373000Y-3250000D01*
X-11373000Y-2652000D01*
X-7377000Y-2652000D01*
X-7377000Y-6373000D01*
G37*
%TD.AperFunction*%
%TD*%
M02*
